HIERARCHY
ROOT hips
{
	OFFSET -0.003675 0.299928 -0.021708
	CHANNELS 6 Xposition Yposition Zposition Xrotation Yrotation Zrotation
	JOINT LowerBack
	{
		OFFSET 0.000919 0.177588 0.009275
		CHANNELS 3 Xrotation Yrotation Zrotation
		JOINT spine
		{
			OFFSET 0.000919 0.177588 0.009275
			CHANNELS 3 Xrotation Yrotation Zrotation
			JOINT chest
			{
				OFFSET 0.000456 0.100015 0.004638
				CHANNELS 3 Xrotation Yrotation Zrotation
				JOINT neck
				{
					OFFSET 0.000456 0.100015 0.004638
					CHANNELS 3 Xrotation Yrotation Zrotation
					JOINT head
					{
						OFFSET 0.000924 0.155147 0.009274
						CHANNELS 6 Xposition Yposition Zposition Xrotation Yrotation Zrotation
						End Site
						{
							OFFSET 0.000000 0.153400 0.000000
						}
					}
				}
				JOINT shoulder.L
				{
					OFFSET 0.019937 0.078966 0.057518
					CHANNELS 6 Xposition Yposition Zposition Yrotation Xrotation Zrotation
					JOINT upper_arm.L
					{
						OFFSET 0.177024 -0.020465 -0.095062
						CHANNELS 6 Xposition Yposition Zposition Xrotation Yrotation Zrotation
						JOINT forearm.L
						{
							OFFSET 0.247100 -0.135500 -0.061800
							CHANNELS 3 Xrotation Yrotation Zrotation
							JOINT hand.L
							{
								OFFSET 0.217000 -0.143000 0.039300
								CHANNELS 3 Xrotation Yrotation Zrotation
								JOINT palm.01.L
								{
									OFFSET 0.021770 -0.038291 0.012954
									CHANNELS 6 Xposition Yposition Zposition Yrotation Xrotation Zrotation
									JOINT f_index.01.L
									{
										OFFSET 0.053215 -0.044137 0.008236
										CHANNELS 3 Xrotation Yrotation Zrotation
										JOINT f_index.02.L
										{
											OFFSET 0.036108 -0.024723 -0.010656
											CHANNELS 3 Xrotation Yrotation Zrotation
											JOINT f_index.03.L
											{
												OFFSET 0.021342 -0.014948 -0.010846
												CHANNELS 3 Xrotation Yrotation Zrotation
												End Site
												{
													OFFSET 0.015600 -0.009860 -0.013421
												}
											}
										}
									}
									JOINT thumb.01.L
									{
										OFFSET -0.009090 -0.002348 -0.024223
										CHANNELS 6 Xposition Yposition Zposition Xrotation Yrotation Zrotation
										JOINT thumb.02.L
										{
											OFFSET 0.019713 -0.035076 -0.011120
											CHANNELS 3 Xrotation Yrotation Zrotation
											JOINT thumb.03.L
											{
												OFFSET 0.024877 -0.021748 -0.005176
												CHANNELS 3 Xrotation Yrotation Zrotation
												End Site
												{
													OFFSET 0.016125 -0.013029 -0.001569
												}
											}
										}
									}
								}
								JOINT palm.02.L
								{
									OFFSET 0.032823 -0.025104 0.012281
									CHANNELS 6 Xposition Yposition Zposition Yrotation Xrotation Zrotation
									JOINT f_middle.01.L
									{
										OFFSET 0.055723 -0.038469 0.008037
										CHANNELS 3 Xrotation Yrotation Zrotation
										JOINT f_middle.02.L
										{
											OFFSET 0.038167 -0.027473 -0.015582
											CHANNELS 3 Xrotation Yrotation Zrotation
											JOINT f_middle.03.L
											{
												OFFSET 0.021707 -0.016587 -0.017037
												CHANNELS 3 Xrotation Yrotation Zrotation
												End Site
												{
													OFFSET 0.014112 -0.010584 -0.014294
												}
											}
										}
									}
								}
								JOINT palm.03.L
								{
									OFFSET 0.039230 -0.011402 0.008390
									CHANNELS 6 Xposition Yposition Zposition Yrotation Xrotation Zrotation
									JOINT f_ring.01.L
									{
										OFFSET 0.061796 -0.031470 0.007910
										CHANNELS 3 Xrotation Yrotation Zrotation
										JOINT f_ring.02.L
										{
											OFFSET 0.033092 -0.023401 -0.019127
											CHANNELS 3 Xrotation Yrotation Zrotation
											JOINT f_ring.03.L
											{
												OFFSET 0.021392 -0.015362 -0.017824
												CHANNELS 3 Xrotation Yrotation Zrotation
												End Site
												{
													OFFSET 0.008670 -0.007297 -0.014686
												}
											}
										}
									}
								}
								JOINT palm.04.L
								{
									OFFSET 0.043417 0.002450 0.002889
									CHANNELS 6 Xposition Yposition Zposition Yrotation Xrotation Zrotation
									JOINT f_pinky.01.L
									{
										OFFSET 0.069986 -0.026156 0.003627
										CHANNELS 3 Xrotation Yrotation Zrotation
										JOINT f_pinky.02.L
										{
											OFFSET 0.018520 -0.012813 -0.016429
											CHANNELS 3 Xrotation Yrotation Zrotation
											JOINT f_pinky.03.L
											{
												OFFSET 0.013822 -0.009796 -0.014947
												CHANNELS 3 Xrotation Yrotation Zrotation
												End Site
												{
													OFFSET 0.007238 -0.006103 -0.011657
												}
											}
										}
									}
								}
							}
						}
					}
				}
				JOINT shoulder.R
				{
					OFFSET -0.016662 0.078957 0.057696
					CHANNELS 6 Xposition Yposition Zposition Yrotation Xrotation Zrotation
					JOINT upper_arm.R
					{
						OFFSET -0.176972 -0.020537 -0.095144
						CHANNELS 6 Xposition Yposition Zposition Xrotation Yrotation Zrotation
						JOINT forearm.R
						{
							OFFSET -0.247100 -0.135500 -0.061800
							CHANNELS 3 Xrotation Yrotation Zrotation
							JOINT hand.R
							{
								OFFSET -0.217000 -0.143000 0.039300
								CHANNELS 3 Xrotation Yrotation Zrotation
								JOINT palm.01.R
								{
									OFFSET -0.021773 -0.038278 0.012988
									CHANNELS 6 Xposition Yposition Zposition Yrotation Xrotation Zrotation
									JOINT f_index.01.R
									{
										OFFSET -0.053212 -0.044139 0.008249
										CHANNELS 3 Xrotation Yrotation Zrotation
										JOINT f_index.02.R
										{
											OFFSET -0.036049 -0.024835 -0.010634
											CHANNELS 3 Xrotation Yrotation Zrotation
											JOINT f_index.03.R
											{
												OFFSET -0.021371 -0.014881 -0.010866
												CHANNELS 3 Xrotation Yrotation Zrotation
												End Site
												{
													OFFSET -0.015584 -0.009883 -0.013422
												}
											}
										}
									}
									JOINT thumb.01.R
									{
										OFFSET 0.009113 -0.002381 -0.024211
										CHANNELS 6 Xposition Yposition Zposition Xrotation Yrotation Zrotation
										JOINT thumb.02.R
										{
											OFFSET -0.019694 -0.035097 -0.011088
											CHANNELS 3 Xrotation Yrotation Zrotation
											JOINT thumb.03.R
											{
												OFFSET -0.024867 -0.021762 -0.005168
												CHANNELS 3 Xrotation Yrotation Zrotation
												End Site
												{
													OFFSET -0.016120 -0.013036 -0.001565
												}
											}
										}
									}
								}
								JOINT palm.02.R
								{
									OFFSET -0.032828 -0.025095 0.012286
									CHANNELS 6 Xposition Yposition Zposition Yrotation Xrotation Zrotation
									JOINT f_middle.01.R
									{
										OFFSET -0.055721 -0.038472 0.008040
										CHANNELS 3 Xrotation Yrotation Zrotation
										JOINT f_middle.02.R
										{
											OFFSET -0.038101 -0.027593 -0.015557
											CHANNELS 3 Xrotation Yrotation Zrotation
											JOINT f_middle.03.R
											{
												OFFSET -0.021730 -0.016530 -0.017054
												CHANNELS 3 Xrotation Yrotation Zrotation
												End Site
												{
													OFFSET -0.014096 -0.010608 -0.014293
												}
											}
										}
									}
								}
								JOINT palm.03.R
								{
									OFFSET -0.039192 -0.011488 0.008390
									CHANNELS 6 Xposition Yposition Zposition Yrotation Xrotation Zrotation
									JOINT f_ring.01.R
									{
										OFFSET -0.061839 -0.031387 0.007876
										CHANNELS 3 Xrotation Yrotation Zrotation
										JOINT f_ring.02.R
										{
											OFFSET -0.033068 -0.023437 -0.019125
											CHANNELS 3 Xrotation Yrotation Zrotation
											JOINT f_ring.03.R
											{
												OFFSET -0.021371 -0.015393 -0.017822
												CHANNELS 3 Xrotation Yrotation Zrotation
												End Site
												{
													OFFSET -0.008654 -0.007321 -0.014684
												}
											}
										}
									}
								}
								JOINT palm.04.R
								{
									OFFSET -0.043421 0.002443 0.002845
									CHANNELS 6 Xposition Yposition Zposition Yrotation Xrotation Zrotation
									JOINT f_pinky.01.R
									{
										OFFSET -0.069983 -0.026169 0.003599
										CHANNELS 3 Xrotation Yrotation Zrotation
										JOINT f_pinky.02.R
										{
											OFFSET -0.018501 -0.012842 -0.016428
											CHANNELS 3 Xrotation Yrotation Zrotation
											JOINT f_pinky.03.R
											{
												OFFSET -0.013806 -0.009821 -0.014946
												CHANNELS 3 Xrotation Yrotation Zrotation
												End Site
												{
													OFFSET -0.007226 -0.006121 -0.011655
												}
											}
										}
									}
								}
							}
						}
					}
				}
			}
		}
	}
	JOINT pelvis.L
	{
		OFFSET 0.000000 0.000000 0.000000
		CHANNELS 6 Xposition Yposition Zposition Xrotation Yrotation Zrotation
		JOINT thigh.L
		{
			OFFSET 0.101675 0.001054 -0.000000
			CHANNELS 3 Xrotation Yrotation Zrotation
			JOINT shin.L
			{
				OFFSET 0.000000 -0.534800 0.041000
				CHANNELS 3 Xrotation Yrotation Zrotation
				JOINT foot.L
				{
					OFFSET 0.000000 -0.452000 -0.044800
					CHANNELS 3 Xrotation Yrotation Zrotation
					JOINT toe.L
					{
						OFFSET -0.000000 -0.068500 0.109600
						CHANNELS 3 Xrotation Yrotation Zrotation
						End Site
						{
							OFFSET -0.000000 0.000000 0.067200
						}
					}
				}
				JOINT heel.L
				{
					OFFSET 0.000000 -0.452000 -0.044800
					CHANNELS 3 Xrotation Yrotation Zrotation
					JOINT heel.02.L
					{
						OFFSET -0.038000 -0.085200 0.016200
						CHANNELS 6 Xposition Yposition Zposition Xrotation Yrotation Zrotation
						End Site
						{
							OFFSET 0.080000 -0.000000 0.000000
						}
					}
				}
			}
		}
	}
	JOINT pelvis.R
	{
		OFFSET 0.000000 0.000000 0.000000
		CHANNELS 6 Xposition Yposition Zposition Xrotation Yrotation Zrotation
		JOINT thigh.R
		{
			OFFSET -0.094325 0.001054 0.000000
			CHANNELS 3 Xrotation Yrotation Zrotation
			JOINT shin.R
			{
				OFFSET 0.000000 -0.534800 0.041000
				CHANNELS 3 Xrotation Yrotation Zrotation
				JOINT foot.R
				{
					OFFSET 0.000000 -0.452000 -0.044800
					CHANNELS 3 Xrotation Yrotation Zrotation
					JOINT toe.R
					{
						OFFSET -0.000000 -0.068500 0.109600
						CHANNELS 3 Xrotation Yrotation Zrotation
						End Site
						{
							OFFSET -0.000000 0.000000 0.067200
						}
					}
				}
				JOINT heel.R
				{
					OFFSET 0.000000 -0.452000 -0.044800
					CHANNELS 3 Xrotation Yrotation Zrotation
					JOINT heel.02.R
					{
						OFFSET 0.038000 -0.085200 0.016200
						CHANNELS 6 Xposition Yposition Zposition Xrotation Yrotation Zrotation
						End Site
						{
							OFFSET -0.080000 0.000000 -0.000000
						}
					}
				}
			}
		}
	}
}
MOTION
Frames: 4
Frame Time: 0.041667
-0.022182 0.211375 -0.022376 -43.198928 -0.560587 70.645575 -0.000001 0.000000 -0.000002 -0.000001 0.000006 0.000000 -0.000000 0.000000 -0.000000 0.000000 0.000000 0.000002 0.000924 0.155148 0.009274 1.070248 0.001288 -8.646767 0.019937 0.078966 0.057518 -14.532407 0.803472 38.977444 0.177025 -0.020465 -0.095062 -12.212550 14.347215 -59.023831 -1.415900 -2.796333 -15.728788 -0.000002 0.000005 0.000000 0.021770 -0.038291 0.012954 0.000001 0.000004 -0.000004 0.000000 0.000002 -0.000002 -0.000000 -0.000004 0.000008 -0.000004 0.000000 0.000003 -0.009090 -0.002348 -0.024224 0.000003 0.000003 -0.000002 -0.000002 -0.000000 0.000001 0.000002 0.000002 -0.000002 0.032823 -0.025104 0.012281 0.000002 0.000003 0.000005 0.000008 0.000003 -0.000007 -0.000002 -0.000000 0.000003 0.000003 -0.000000 0.000000 0.039230 -0.011402 0.008390 0.000001 0.000004 0.000002 -0.000003 0.000005 -0.000002 0.000006 0.000001 0.000003 -0.000003 -0.000003 -0.000000 0.043417 0.002450 0.002889 0.000001 0.000002 -0.000005 -0.000000 -0.000008 -0.000002 -0.000003 0.000002 -0.000001 -0.000005 -0.000003 0.000000 -0.016662 0.078957 0.057696 -18.771129 1.634649 -23.746572 -0.176972 -0.020537 -0.095144 -3.846131 -12.702487 63.585373 9.924355 -8.363167 12.508520 -0.000000 -0.000001 -0.000001 -0.021773 -0.038278 0.012988 0.000000 -0.000000 -0.000005 -0.000001 0.000001 0.000001 -0.000001 -0.000000 0.000001 -0.000001 0.000002 -0.000003 0.009114 -0.002381 -0.024211 -0.000000 -0.000002 -0.000003 0.000002 -0.000001 -0.000001 0.000001 0.000000 -0.000008 -0.032828 -0.025095 0.012286 0.000001 -0.000000 -0.000005 -0.000003 0.000003 0.000002 0.000004 0.000000 0.000002 -0.000000 0.000002 -0.000007 -0.039192 -0.011488 0.008390 -0.000001 0.000000 -0.000000 0.000001 0.000003 -0.000003 -0.000000 -0.000001 -0.000004 0.000003 0.000004 -0.000002 -0.043421 0.002443 0.002845 0.000000 0.000002 -0.000005 -0.000008 0.000003 0.000003 -0.000003 -0.000003 0.000002 0.000001 0.000006 0.000002 0.000000 0.000000 0.000000 -2.410906 0.085811 -1.856265 -19.509226 0.196045 4.057928 4.989311 -1.634359 16.732533 0.000000 0.000001 0.000000 -0.000003 0.000004 0.000000 -0.000002 0.000005 -0.000000 -0.038000 -0.085200 0.016200 -0.000000 0.000001 -0.000001 0.000000 0.000000 0.000000 -2.356019 0.084600 -0.622165 -21.703411 -0.125924 -3.599955 -4.782526 0.527194 -5.326586 0.000002 -0.000004 -0.000000 0.000005 -0.000005 0.000000 0.000007 -0.000005 -0.000002 0.038000 -0.085200 0.016200 -0.000002 -0.000002 -0.000001 
-0.022436 0.210340 -0.021165 -39.433674 -1.866113 69.276546 -0.000002 -0.000002 -0.000002 0.000000 -0.000001 -0.000000 0.000001 -0.000002 -0.000001 -0.000001 0.000001 -0.000001 0.000924 0.155147 0.009274 -1.632213 0.012012 -3.752038 0.019937 0.078966 0.057518 -10.028001 0.329640 37.479584 0.177024 -0.020465 -0.095062 -15.234711 13.638939 -56.484018 -3.383291 -4.623414 -9.858988 -0.000001 -0.000003 0.000000 0.021770 -0.038291 0.012954 -0.000001 0.000002 0.000001 -0.000002 -0.000002 0.000003 0.000000 0.000002 0.000004 -0.000001 -0.000001 0.000001 -0.009090 -0.002348 -0.024223 -0.000001 -0.000002 0.000001 0.000003 -0.000004 0.000004 0.000001 0.000004 -0.000002 0.032823 -0.025104 0.012281 0.000001 0.000001 -0.000001 0.000002 0.000007 -0.000007 -0.000006 -0.000001 0.000003 -0.000001 -0.000007 0.000003 0.039230 -0.011402 0.008390 -0.000001 0.000001 0.000004 -0.000001 0.000002 -0.000000 -0.000001 0.000008 0.000001 -0.000002 -0.000006 0.000002 0.043417 0.002450 0.002889 -0.000000 0.000003 0.000002 -0.000004 -0.000008 0.000002 0.000002 -0.000001 -0.000003 -0.000002 0.000000 -0.000002 -0.016662 0.078957 0.057696 -14.949047 0.940190 -25.474166 -0.176972 -0.020537 -0.095144 -4.868456 -13.106859 60.203343 9.100016 -4.764196 19.897818 0.000001 -0.000002 -0.000001 -0.021773 -0.038278 0.012988 -0.000000 -0.000000 0.000002 -0.000002 0.000001 0.000001 0.000001 -0.000003 -0.000008 -0.000002 0.000000 0.000011 0.009114 -0.002381 -0.024211 -0.000002 -0.000003 0.000002 -0.000001 -0.000000 -0.000003 0.000001 -0.000001 0.000004 -0.032828 -0.025095 0.012286 0.000001 0.000000 -0.000004 0.000000 0.000004 -0.000001 -0.000000 -0.000001 -0.000001 -0.000001 0.000003 -0.000006 -0.039192 -0.011488 0.008390 0.000001 -0.000001 -0.000000 -0.000002 -0.000001 -0.000002 0.000001 -0.000002 -0.000000 0.000001 -0.000003 0.000000 -0.043421 0.002443 0.002845 -0.000001 0.000001 0.000002 -0.000004 0.000005 -0.000001 -0.000001 -0.000004 -0.000002 -0.000001 -0.000002 0.000002 0.000000 0.000000 -0.000000 -2.441089 0.065334 -1.634075 -18.212503 0.385815 6.453026 6.079130 -1.767563 18.142473 -0.000002 -0.000004 -0.000000 0.000001 0.000002 0.000002 0.000000 -0.000004 -0.000001 -0.038000 -0.085200 0.016200 -0.000000 -0.000001 -0.000000 0.000000 0.000000 -0.000000 -2.386320 0.064344 -0.399953 -22.323032 0.047102 -1.365981 -5.393706 0.386817 -3.905648 -0.000005 0.000001 -0.000003 0.000001 -0.000002 -0.000001 0.000003 -0.000001 -0.000000 0.038000 -0.085200 0.016200 0.000000 -0.000003 -0.000002 
-0.019947 0.205883 -0.015002 -22.224259 -4.658175 80.932079 -0.000001 0.000002 0.000000 0.000000 0.000001 0.000000 -0.000001 0.000001 -0.000001 -0.000000 0.000001 0.000001 0.000924 0.155147 0.009274 8.028625 -0.012058 1.154581 0.019937 0.078966 0.057518 -6.862083 3.174602 45.683584 0.177025 -0.020465 -0.095062 -25.843860 -7.201152 -17.428554 3.185146 5.987027 8.019825 0.000001 -0.000001 0.000002 0.021770 -0.038291 0.012954 0.000001 -0.000001 -0.000004 -0.000002 -0.000001 -0.000000 -0.000002 -0.000001 0.000001 0.000001 -0.000002 -0.000001 -0.009090 -0.002348 -0.024223 -0.000003 -0.000002 -0.000001 -0.000000 -0.000000 0.000001 0.000001 -0.000001 -0.000001 0.032823 -0.025104 0.012281 0.000001 -0.000001 0.000002 0.000004 0.000001 0.000000 0.000001 -0.000002 0.000001 -0.000000 -0.000003 -0.000001 0.039230 -0.011402 0.008390 0.000000 0.000000 0.000001 0.000002 -0.000002 0.000003 -0.000001 0.000001 0.000006 0.000004 -0.000000 0.000000 0.043417 0.002450 0.002889 -0.000001 0.000002 -0.000002 -0.000002 -0.000003 -0.000000 -0.000002 0.000003 0.000001 -0.000002 -0.000002 -0.000002 -0.016662 0.078957 0.057696 -27.040232 7.919311 -40.397489 -0.176972 -0.020537 -0.095144 8.167298 28.587156 -36.913286 -5.598518 -16.329331 -79.988905 -0.000001 -0.000000 0.000000 -0.021773 -0.038278 0.012988 0.000001 -0.000001 -0.000002 -0.000003 0.000005 0.000004 -0.000002 0.000001 -0.000008 -0.000003 -0.000001 0.000006 0.009113 -0.002381 -0.024212 0.000002 -0.000003 0.000001 0.000000 -0.000004 0.000002 -0.000001 -0.000000 -0.000006 -0.032828 -0.025095 0.012286 0.000001 0.000000 -0.000001 0.000003 0.000005 -0.000003 0.000000 0.000001 0.000001 -0.000005 0.000003 -0.000002 -0.039192 -0.011488 0.008390 0.000002 0.000001 -0.000002 0.000001 0.000000 -0.000003 0.000002 -0.000003 -0.000003 -0.000001 0.000003 -0.000001 -0.043421 0.002443 0.002845 -0.000000 -0.000002 -0.000003 -0.000001 0.000003 0.000001 0.000002 -0.000004 -0.000002 -0.000001 -0.000000 0.000003 0.000000 0.000000 -0.000000 -2.305935 -0.138778 0.541313 1.544035 0.752857 10.087933 20.521346 -1.405065 14.329686 -0.000002 0.000001 -0.000001 0.000002 -0.000001 -0.000001 0.000000 -0.000000 -0.000000 -0.038000 -0.085200 0.016200 0.000001 -0.000003 -0.000000 0.000000 0.000000 -0.000000 -2.261611 -0.137900 1.775610 -24.327006 0.165844 0.059116 20.275060 0.464462 -4.690993 0.000003 0.000000 -0.000003 0.000004 0.000003 -0.000001 0.000007 -0.000001 -0.000001 0.038000 -0.085200 0.016200 -0.000004 -0.000000 0.000001 
-0.019389 0.205911 -0.013765 -22.171486 -3.539599 82.006202 0.000000 0.000001 0.000001 -0.000000 -0.000001 0.000001 -0.000000 0.000000 0.000001 -0.000000 0.000000 -0.000000 0.000924 0.155147 0.009274 8.875081 -0.013736 1.427462 0.019937 0.078966 0.057518 -6.934213 3.602818 47.419671 0.177024 -0.020465 -0.095062 -24.470775 -14.115803 -9.341945 4.070723 10.467114 14.406855 0.000001 -0.000003 -0.000002 0.021770 -0.038291 0.012954 0.000002 -0.000000 -0.000004 -0.000001 0.000001 0.000001 -0.000000 -0.000000 0.000009 -0.000000 -0.000001 0.000004 -0.009090 -0.002348 -0.024223 -0.000003 -0.000003 0.000002 0.000001 -0.000002 -0.000001 -0.000002 0.000001 -0.000002 0.032823 -0.025104 0.012281 -0.000002 0.000001 0.000002 0.000000 0.000001 -0.000000 -0.000002 -0.000003 0.000003 0.000001 -0.000006 0.000000 0.039230 -0.011402 0.008390 0.000001 0.000000 0.000003 -0.000001 -0.000000 -0.000002 -0.000002 0.000003 0.000001 0.000003 -0.000004 0.000002 0.043417 0.002450 0.002889 0.000000 0.000001 -0.000003 -0.000001 0.000003 -0.000000 -0.000002 0.000003 0.000001 0.000005 -0.000001 -0.000003 -0.016662 0.078957 0.057696 -29.197563 8.542758 -39.850602 -0.176972 -0.020537 -0.095144 9.009392 23.271614 -38.019797 -9.073908 -21.927062 -72.359215 0.000001 0.000002 -0.000000 -0.021773 -0.038278 0.012988 0.000001 -0.000001 -0.000003 -0.000002 0.000002 0.000001 -0.000001 -0.000000 -0.000004 0.000001 0.000004 0.000008 0.009114 -0.002381 -0.024212 0.000001 -0.000004 0.000000 -0.000000 -0.000002 -0.000001 0.000001 -0.000001 -0.000003 -0.032828 -0.025095 0.012286 0.000001 0.000001 -0.000003 -0.000000 0.000001 0.000006 0.000001 -0.000000 -0.000001 -0.000005 0.000002 -0.000007 -0.039192 -0.011488 0.008390 -0.000001 0.000001 -0.000000 -0.000001 0.000007 -0.000005 -0.000000 -0.000004 -0.000004 -0.000000 -0.000001 -0.000006 -0.043421 0.002442 0.002844 0.000000 0.000000 0.000002 -0.000003 0.000004 -0.000003 0.000002 -0.000003 0.000002 -0.000000 -0.000000 0.000001 0.000000 0.000000 0.000000 -2.289605 -0.176818 0.956363 3.718695 0.754802 9.977294 21.014972 -1.446958 14.766652 0.000000 0.000001 0.000001 0.000000 0.000000 0.000000 0.000000 0.000002 -0.000000 -0.038000 -0.085200 0.016200 0.000001 0.000000 0.000001 0.000000 0.000000 0.000000 -2.246991 -0.175657 2.190678 -24.182517 0.200555 0.532558 21.789721 0.500549 -5.056532 0.000002 0.000001 0.000001 0.000001 0.000002 -0.000002 0.000007 0.000002 -0.000000 0.038000 -0.085200 0.016200 -0.000001 0.000001 -0.000001 
